<?xml version="1.0" encoding="UTF-8"?>
<svg xmlns="http://www.w3.org/2000/svg" xmlns:xlink="http://www.w3.org/1999/xlink" viewBox="0 0 50 50" width="50px" height="50px">
<g id="surface64152118">
<path style=" stroke:none;fill-rule:nonzero;fill:rgb(20.392157%,59.607846%,85.882354%);fill-opacity:1;" d="M 14 4 C 8.488281 4 4 8.488281 4 14 L 4 36 C 4 41.511719 8.488281 46 14 46 L 36 46 C 41.511719 46 46 41.511719 46 36 L 46 14 C 46 8.488281 41.511719 4 36 4 Z M 14 6 L 36 6 C 40.429688 6 44 9.570312 44 14 L 44 36 C 44 40.429688 40.429688 44 36 44 L 14 44 C 9.570312 44 6 40.429688 6 36 L 6 14 C 6 9.570312 9.570312 6 14 6 Z M 18 9 C 15.25 9 13 11.25 13 14 L 13 36 C 13 38.75 15.25 41 18 41 L 32 41 C 34.75 41 37 38.75 37 36 L 37 14 C 37 11.25 34.75 9 32 9 Z M 18 11 L 32 11 C 33.667969 11 35 12.332031 35 14 L 35 36 C 35 37.667969 33.667969 39 32 39 L 18 39 C 16.332031 39 15 37.667969 15 36 L 15 14 C 15 12.332031 16.332031 11 18 11 Z M 18 13 C 17.449219 13 17 13.449219 17 14 L 17 18 C 17 18.550781 17.449219 19 18 19 L 32 19 C 32.550781 19 33 18.550781 33 18 L 33 14 C 33 13.449219 32.550781 13 32 13 Z M 19 21 C 17.894531 21 17 21.894531 17 23 C 17 24.105469 17.894531 25 19 25 C 20.105469 25 21 24.105469 21 23 C 21 21.894531 20.105469 21 19 21 Z M 25 21 C 23.894531 21 23 21.894531 23 23 C 23 24.105469 23.894531 25 25 25 C 26.105469 25 27 24.105469 27 23 C 27 21.894531 26.105469 21 25 21 Z M 31 21 C 29.894531 21 29 21.894531 29 23 C 29 24.105469 29.894531 25 31 25 C 32.105469 25 33 24.105469 33 23 C 33 21.894531 32.105469 21 31 21 Z M 19 27 C 17.894531 27 17 27.894531 17 29 C 17 30.105469 17.894531 31 19 31 C 20.105469 31 21 30.105469 21 29 C 21 27.894531 20.105469 27 19 27 Z M 25 27 C 23.894531 27 23 27.894531 23 29 C 23 30.105469 23.894531 31 25 31 C 26.105469 31 27 30.105469 27 29 C 27 27.894531 26.105469 27 25 27 Z M 31 27 C 29.894531 27 29 27.894531 29 29 C 29 30.105469 29.894531 31 31 31 C 32.105469 31 33 30.105469 33 29 C 33 27.894531 32.105469 27 31 27 Z M 19 33 C 17.894531 33 17 33.894531 17 35 C 17 36.105469 17.894531 37 19 37 L 25 37 C 26.105469 37 27 36.105469 27 35 C 27 33.894531 26.105469 33 25 33 Z M 31 33 C 29.894531 33 29 33.894531 29 35 C 29 36.105469 29.894531 37 31 37 C 32.105469 37 33 36.105469 33 35 C 33 33.894531 32.105469 33 31 33 Z M 31 33 "/>
</g>
</svg>
